<svg id="Layer_2" data-name="Layer 2" xmlns="http://www.w3.org/2000/svg" viewBox="0 0 88.3 196.1"><path d="M45.3,94.9c3.6-.5,7-.3,9.5,2.9,4.2,5.4,9.5,10.4,10.7,17.6a80.6,80.6,0,0,1,1.1,13.9A28.9,28.9,0,0,0,71.8,146c2.8,4.2,5.8,8.8,7.5,13.6,3.1,9,5.5,18.1,8.2,27.2.5,1.8,1.2,3.8.6,5.4s-2.5,2.5-4,3.9c-6.3-14.7-12.2-28.4-18.3-42.1a9,9,0,0,0-3.5-3.5c-2.2-1.5-4-1.1-5.2,1.7a22.7,22.7,0,0,1-3.5,6.3c-2.2,2.5-4.9,4.4-7.6,6.7-2.6-4.5-2.2-7.6.5-10.7,4.1-4.7,5.8-10.5,6.7-16.6a2.4,2.4,0,0,0-.8-2c-2.8-2-5.8-3.9-9.2-6.2a66.7,66.7,0,0,1-2,8c-.5,1.4-1.8,3.4-3,3.5a3.9,3.9,0,0,1-4.6-3c-2.7-7.8-1-15.5.4-23.2s2.9-15.7,1.2-23.7a5.6,5.6,0,0,0-3.4-3.5c-6.6-2.2-13.4-3.6-19.9-6C.4,77.6-.6,70.5.2,60.9c.5-6,.9-12,1.5-18,.4-4.3.8-8.6,1.6-12.8a3.5,3.5,0,0,1,2.7-2,4.3,4.3,0,0,1,3.1,2c1.2,2.4,1.8,5.1,3,7.4s2.4,3.8,3.9,4.2a149.1,149.1,0,0,0,16.3,2.5c.9.1,2.5-1.2,3-2.2,3.4-7.1,2.4-14.6,1.2-22a29.6,29.6,0,0,1,2-16.9C39,1.8,41.2,1.3,43.1,0c1.4,13.6,3.1,26.1,1.2,38.6-1,6.4.6,8.4,7.8,8.6A141,141,0,0,0,68,46.5a3.6,3.6,0,0,0,2.4-2.1q1-6.1,1.5-12.3c.3-5.2,2-6.8,7.2-6.2a4.5,4.5,0,0,1,.3,1.1c.2,14,.6,28,.7,42a40.9,40.9,0,0,1-1.6,9.8,5.4,5.4,0,0,1-2.6,2.8,29.4,29.4,0,0,1-15.4,3.9,47.5,47.5,0,0,0-9.2.7C46.5,87.1,44.7,89.8,45.3,94.9Zm-8.4-30h-.1V63.1c-.3-5.9-1.9-7.6-7.7-8.3S18.3,53,12.9,52.3a4.5,4.5,0,0,0-3.5,1.4C6.3,58,7.1,65.8,10.9,69.6c5.4,5.5,12.3,6.8,19.5,6.7,2.2,0,5.1-.6,5.6-3.7S36.6,67.5,36.9,64.9ZM55.5,75.7h6c7.6-.1,9.7-2.2,9.7-9.7V63.8c-.1-4.5-1.5-5.8-6-6.1S55,56.5,49.8,56.6c-2,0-5.6-1-6.1,2.2a31.9,31.9,0,0,0,.4,11.1c1.4,5.9,1.7,5.8,7.7,5.8Zm-8.8,28.5c-3.8,7.4-5.7,7,.7,15.2,2.4,3.1,5,5.8,9.6,3.5C56.8,115,53.6,108.7,46.7,104.2Z"/></svg>